<mxfile host="app.diagrams.net" modified="2023-07-28T12:20:51.316Z" agent="Mozilla/5.0 (Windows NT 10.0; Win64; x64) AppleWebKit/537.36 (KHTML, like Gecko) Chrome/113.0.0.0 Safari/537.36" etag="gD7OJyLE524o1T-up4J4" version="21.6.5" type="github">
  <diagram name="第 1 页" id="LvVqYSLseUGFUNfoS_Zn">
    <mxGraphModel dx="1781" dy="653" grid="1" gridSize="10" guides="1" tooltips="1" connect="1" arrows="1" fold="1" page="1" pageScale="1" pageWidth="827" pageHeight="1169" math="0" shadow="0">
      <root>
        <mxCell id="0" />
        <mxCell id="1" parent="0" />
        <mxCell id="ZsdHm7hUdMNgsrG0PpbW-67" style="edgeStyle=orthogonalEdgeStyle;rounded=0;orthogonalLoop=1;jettySize=auto;html=1;exitX=0.5;exitY=1;exitDx=0;exitDy=0;entryX=0.5;entryY=-0.036;entryDx=0;entryDy=0;entryPerimeter=0;" edge="1" parent="1" source="ZsdHm7hUdMNgsrG0PpbW-1" target="ZsdHm7hUdMNgsrG0PpbW-8">
          <mxGeometry relative="1" as="geometry" />
        </mxCell>
        <mxCell id="ZsdHm7hUdMNgsrG0PpbW-1" value="&lt;font style=&quot;font-size: 14px;&quot;&gt;数据接口&lt;/font&gt;" style="rounded=1;whiteSpace=wrap;html=1;fillColor=#CCE5FF;strokeColor=#66B2FF;" vertex="1" parent="1">
          <mxGeometry x="240" y="160" width="230" height="40" as="geometry" />
        </mxCell>
        <mxCell id="ZsdHm7hUdMNgsrG0PpbW-2" value="" style="endArrow=classic;html=1;rounded=0;" edge="1" parent="1">
          <mxGeometry width="50" height="50" relative="1" as="geometry">
            <mxPoint x="280" y="80" as="sourcePoint" />
            <mxPoint x="280" y="160" as="targetPoint" />
          </mxGeometry>
        </mxCell>
        <mxCell id="ZsdHm7hUdMNgsrG0PpbW-3" value="" style="endArrow=classic;html=1;rounded=0;" edge="1" parent="1">
          <mxGeometry width="50" height="50" relative="1" as="geometry">
            <mxPoint x="320" y="80" as="sourcePoint" />
            <mxPoint x="320" y="160" as="targetPoint" />
          </mxGeometry>
        </mxCell>
        <mxCell id="ZsdHm7hUdMNgsrG0PpbW-4" value="" style="endArrow=classic;html=1;rounded=0;" edge="1" parent="1">
          <mxGeometry width="50" height="50" relative="1" as="geometry">
            <mxPoint x="360" y="80" as="sourcePoint" />
            <mxPoint x="360" y="160" as="targetPoint" />
          </mxGeometry>
        </mxCell>
        <mxCell id="ZsdHm7hUdMNgsrG0PpbW-5" value="" style="endArrow=classic;html=1;rounded=0;" edge="1" parent="1">
          <mxGeometry width="50" height="50" relative="1" as="geometry">
            <mxPoint x="400" y="80" as="sourcePoint" />
            <mxPoint x="400" y="160" as="targetPoint" />
          </mxGeometry>
        </mxCell>
        <mxCell id="ZsdHm7hUdMNgsrG0PpbW-6" value="" style="endArrow=classic;html=1;rounded=0;" edge="1" parent="1">
          <mxGeometry width="50" height="50" relative="1" as="geometry">
            <mxPoint x="440" y="80" as="sourcePoint" />
            <mxPoint x="440" y="160" as="targetPoint" />
          </mxGeometry>
        </mxCell>
        <mxCell id="ZsdHm7hUdMNgsrG0PpbW-7" value="&lt;font style=&quot;font-size: 14px;&quot;&gt;数据访问&lt;/font&gt;" style="text;html=1;strokeColor=none;fillColor=none;align=center;verticalAlign=middle;whiteSpace=wrap;rounded=0;fontColor=#FF3333;" vertex="1" parent="1">
          <mxGeometry x="443" y="100" width="60" height="30" as="geometry" />
        </mxCell>
        <mxCell id="ZsdHm7hUdMNgsrG0PpbW-10" value="" style="group" vertex="1" connectable="0" parent="1">
          <mxGeometry x="313.34" y="260" width="83.32999999999998" height="100" as="geometry" />
        </mxCell>
        <mxCell id="ZsdHm7hUdMNgsrG0PpbW-8" value="" style="image;sketch=0;aspect=fixed;html=1;points=[];align=center;fontSize=12;image=img/lib/mscae/Cache_Redis_Product.svg;" vertex="1" parent="ZsdHm7hUdMNgsrG0PpbW-10">
          <mxGeometry width="83.33" height="70" as="geometry" />
        </mxCell>
        <mxCell id="ZsdHm7hUdMNgsrG0PpbW-9" value="&lt;font style=&quot;font-size: 14px;&quot;&gt;Redis&lt;/font&gt;" style="text;html=1;strokeColor=none;fillColor=none;align=center;verticalAlign=middle;whiteSpace=wrap;rounded=0;" vertex="1" parent="ZsdHm7hUdMNgsrG0PpbW-10">
          <mxGeometry x="11.660000000000025" y="70" width="60" height="30" as="geometry" />
        </mxCell>
        <mxCell id="ZsdHm7hUdMNgsrG0PpbW-46" value="" style="group" vertex="1" connectable="0" parent="1">
          <mxGeometry x="-70" y="420" width="263.34000000000003" height="220" as="geometry" />
        </mxCell>
        <mxCell id="ZsdHm7hUdMNgsrG0PpbW-18" value="" style="group" vertex="1" connectable="0" parent="ZsdHm7hUdMNgsrG0PpbW-46">
          <mxGeometry x="98" width="72" height="94" as="geometry" />
        </mxCell>
        <mxCell id="ZsdHm7hUdMNgsrG0PpbW-11" value="" style="image;aspect=fixed;html=1;points=[];align=center;fontSize=12;image=img/lib/azure2/databases/Azure_Database_MySQL_Server.svg;" vertex="1" parent="ZsdHm7hUdMNgsrG0PpbW-18">
          <mxGeometry x="12" width="48" height="64" as="geometry" />
        </mxCell>
        <mxCell id="ZsdHm7hUdMNgsrG0PpbW-15" value="&lt;font style=&quot;font-size: 14px;&quot;&gt;MySQL库&lt;/font&gt;" style="text;html=1;strokeColor=none;fillColor=none;align=center;verticalAlign=middle;whiteSpace=wrap;rounded=0;" vertex="1" parent="ZsdHm7hUdMNgsrG0PpbW-18">
          <mxGeometry y="64" width="72" height="30" as="geometry" />
        </mxCell>
        <mxCell id="ZsdHm7hUdMNgsrG0PpbW-22" value="&lt;font style=&quot;font-size: 14px;&quot;&gt;数据表1&lt;/font&gt;" style="shape=note;whiteSpace=wrap;html=1;backgroundOutline=1;darkOpacity=0.05;" vertex="1" parent="ZsdHm7hUdMNgsrG0PpbW-46">
          <mxGeometry y="140" width="60" height="80" as="geometry" />
        </mxCell>
        <mxCell id="ZsdHm7hUdMNgsrG0PpbW-23" value="&lt;font style=&quot;font-size: 14px;&quot;&gt;数据表2&lt;/font&gt;" style="shape=note;whiteSpace=wrap;html=1;backgroundOutline=1;darkOpacity=0.05;" vertex="1" parent="ZsdHm7hUdMNgsrG0PpbW-46">
          <mxGeometry x="104" y="140" width="60" height="80" as="geometry" />
        </mxCell>
        <mxCell id="ZsdHm7hUdMNgsrG0PpbW-24" value="&lt;font style=&quot;font-size: 14px;&quot;&gt;数据表3&lt;/font&gt;" style="shape=note;whiteSpace=wrap;html=1;backgroundOutline=1;darkOpacity=0.05;" vertex="1" parent="ZsdHm7hUdMNgsrG0PpbW-46">
          <mxGeometry x="203.34" y="140" width="60" height="80" as="geometry" />
        </mxCell>
        <mxCell id="ZsdHm7hUdMNgsrG0PpbW-25" style="edgeStyle=orthogonalEdgeStyle;rounded=0;orthogonalLoop=1;jettySize=auto;html=1;entryX=0;entryY=0;entryDx=30;entryDy=0;entryPerimeter=0;" edge="1" parent="ZsdHm7hUdMNgsrG0PpbW-46" source="ZsdHm7hUdMNgsrG0PpbW-15" target="ZsdHm7hUdMNgsrG0PpbW-23">
          <mxGeometry relative="1" as="geometry" />
        </mxCell>
        <mxCell id="ZsdHm7hUdMNgsrG0PpbW-26" style="rounded=0;orthogonalLoop=1;jettySize=auto;html=1;exitX=0.5;exitY=1;exitDx=0;exitDy=0;entryX=0;entryY=0;entryDx=30;entryDy=0;entryPerimeter=0;" edge="1" parent="ZsdHm7hUdMNgsrG0PpbW-46" source="ZsdHm7hUdMNgsrG0PpbW-15" target="ZsdHm7hUdMNgsrG0PpbW-22">
          <mxGeometry relative="1" as="geometry" />
        </mxCell>
        <mxCell id="ZsdHm7hUdMNgsrG0PpbW-27" style="rounded=0;orthogonalLoop=1;jettySize=auto;html=1;exitX=0.5;exitY=1;exitDx=0;exitDy=0;entryX=0;entryY=0;entryDx=30;entryDy=0;entryPerimeter=0;" edge="1" parent="ZsdHm7hUdMNgsrG0PpbW-46" source="ZsdHm7hUdMNgsrG0PpbW-15" target="ZsdHm7hUdMNgsrG0PpbW-24">
          <mxGeometry relative="1" as="geometry" />
        </mxCell>
        <mxCell id="ZsdHm7hUdMNgsrG0PpbW-47" value="" style="group" vertex="1" connectable="0" parent="1">
          <mxGeometry x="220" y="420" width="263.34000000000003" height="220" as="geometry" />
        </mxCell>
        <mxCell id="ZsdHm7hUdMNgsrG0PpbW-48" value="" style="group" vertex="1" connectable="0" parent="ZsdHm7hUdMNgsrG0PpbW-47">
          <mxGeometry x="98" width="72" height="94" as="geometry" />
        </mxCell>
        <mxCell id="ZsdHm7hUdMNgsrG0PpbW-49" value="" style="image;aspect=fixed;html=1;points=[];align=center;fontSize=12;image=img/lib/azure2/databases/Azure_Database_MySQL_Server.svg;" vertex="1" parent="ZsdHm7hUdMNgsrG0PpbW-48">
          <mxGeometry x="12" width="48" height="64" as="geometry" />
        </mxCell>
        <mxCell id="ZsdHm7hUdMNgsrG0PpbW-50" value="&lt;font style=&quot;font-size: 14px;&quot;&gt;MySQL库&lt;/font&gt;" style="text;html=1;strokeColor=none;fillColor=none;align=center;verticalAlign=middle;whiteSpace=wrap;rounded=0;" vertex="1" parent="ZsdHm7hUdMNgsrG0PpbW-48">
          <mxGeometry y="64" width="72" height="30" as="geometry" />
        </mxCell>
        <mxCell id="ZsdHm7hUdMNgsrG0PpbW-51" value="&lt;font style=&quot;font-size: 14px;&quot;&gt;数据表1&lt;/font&gt;" style="shape=note;whiteSpace=wrap;html=1;backgroundOutline=1;darkOpacity=0.05;" vertex="1" parent="ZsdHm7hUdMNgsrG0PpbW-47">
          <mxGeometry y="140" width="60" height="80" as="geometry" />
        </mxCell>
        <mxCell id="ZsdHm7hUdMNgsrG0PpbW-52" value="&lt;font style=&quot;font-size: 14px;&quot;&gt;数据表2&lt;/font&gt;" style="shape=note;whiteSpace=wrap;html=1;backgroundOutline=1;darkOpacity=0.05;" vertex="1" parent="ZsdHm7hUdMNgsrG0PpbW-47">
          <mxGeometry x="104" y="140" width="60" height="80" as="geometry" />
        </mxCell>
        <mxCell id="ZsdHm7hUdMNgsrG0PpbW-53" value="&lt;font style=&quot;font-size: 14px;&quot;&gt;数据表3&lt;/font&gt;" style="shape=note;whiteSpace=wrap;html=1;backgroundOutline=1;darkOpacity=0.05;" vertex="1" parent="ZsdHm7hUdMNgsrG0PpbW-47">
          <mxGeometry x="203.34" y="140" width="60" height="80" as="geometry" />
        </mxCell>
        <mxCell id="ZsdHm7hUdMNgsrG0PpbW-54" style="edgeStyle=orthogonalEdgeStyle;rounded=0;orthogonalLoop=1;jettySize=auto;html=1;entryX=0;entryY=0;entryDx=30;entryDy=0;entryPerimeter=0;" edge="1" parent="ZsdHm7hUdMNgsrG0PpbW-47" source="ZsdHm7hUdMNgsrG0PpbW-50" target="ZsdHm7hUdMNgsrG0PpbW-52">
          <mxGeometry relative="1" as="geometry" />
        </mxCell>
        <mxCell id="ZsdHm7hUdMNgsrG0PpbW-55" style="rounded=0;orthogonalLoop=1;jettySize=auto;html=1;exitX=0.5;exitY=1;exitDx=0;exitDy=0;entryX=0;entryY=0;entryDx=30;entryDy=0;entryPerimeter=0;" edge="1" parent="ZsdHm7hUdMNgsrG0PpbW-47" source="ZsdHm7hUdMNgsrG0PpbW-50" target="ZsdHm7hUdMNgsrG0PpbW-51">
          <mxGeometry relative="1" as="geometry" />
        </mxCell>
        <mxCell id="ZsdHm7hUdMNgsrG0PpbW-56" style="rounded=0;orthogonalLoop=1;jettySize=auto;html=1;exitX=0.5;exitY=1;exitDx=0;exitDy=0;entryX=0;entryY=0;entryDx=30;entryDy=0;entryPerimeter=0;" edge="1" parent="ZsdHm7hUdMNgsrG0PpbW-47" source="ZsdHm7hUdMNgsrG0PpbW-50" target="ZsdHm7hUdMNgsrG0PpbW-53">
          <mxGeometry relative="1" as="geometry" />
        </mxCell>
        <mxCell id="ZsdHm7hUdMNgsrG0PpbW-57" value="" style="group" vertex="1" connectable="0" parent="1">
          <mxGeometry x="510" y="420" width="263.34000000000003" height="220" as="geometry" />
        </mxCell>
        <mxCell id="ZsdHm7hUdMNgsrG0PpbW-58" value="" style="group" vertex="1" connectable="0" parent="ZsdHm7hUdMNgsrG0PpbW-57">
          <mxGeometry x="98" width="72" height="94" as="geometry" />
        </mxCell>
        <mxCell id="ZsdHm7hUdMNgsrG0PpbW-59" value="" style="image;aspect=fixed;html=1;points=[];align=center;fontSize=12;image=img/lib/azure2/databases/Azure_Database_MySQL_Server.svg;" vertex="1" parent="ZsdHm7hUdMNgsrG0PpbW-58">
          <mxGeometry x="12" width="48" height="64" as="geometry" />
        </mxCell>
        <mxCell id="ZsdHm7hUdMNgsrG0PpbW-60" value="&lt;font style=&quot;font-size: 14px;&quot;&gt;MySQL库&lt;/font&gt;" style="text;html=1;strokeColor=none;fillColor=none;align=center;verticalAlign=middle;whiteSpace=wrap;rounded=0;" vertex="1" parent="ZsdHm7hUdMNgsrG0PpbW-58">
          <mxGeometry y="64" width="72" height="30" as="geometry" />
        </mxCell>
        <mxCell id="ZsdHm7hUdMNgsrG0PpbW-61" value="&lt;font style=&quot;font-size: 14px;&quot;&gt;数据表1&lt;/font&gt;" style="shape=note;whiteSpace=wrap;html=1;backgroundOutline=1;darkOpacity=0.05;" vertex="1" parent="ZsdHm7hUdMNgsrG0PpbW-57">
          <mxGeometry y="140" width="60" height="80" as="geometry" />
        </mxCell>
        <mxCell id="ZsdHm7hUdMNgsrG0PpbW-62" value="&lt;font style=&quot;font-size: 14px;&quot;&gt;数据表2&lt;/font&gt;" style="shape=note;whiteSpace=wrap;html=1;backgroundOutline=1;darkOpacity=0.05;" vertex="1" parent="ZsdHm7hUdMNgsrG0PpbW-57">
          <mxGeometry x="104" y="140" width="60" height="80" as="geometry" />
        </mxCell>
        <mxCell id="ZsdHm7hUdMNgsrG0PpbW-63" value="&lt;font style=&quot;font-size: 14px;&quot;&gt;数据表3&lt;/font&gt;" style="shape=note;whiteSpace=wrap;html=1;backgroundOutline=1;darkOpacity=0.05;" vertex="1" parent="ZsdHm7hUdMNgsrG0PpbW-57">
          <mxGeometry x="203.34" y="140" width="60" height="80" as="geometry" />
        </mxCell>
        <mxCell id="ZsdHm7hUdMNgsrG0PpbW-64" style="edgeStyle=orthogonalEdgeStyle;rounded=0;orthogonalLoop=1;jettySize=auto;html=1;entryX=0;entryY=0;entryDx=30;entryDy=0;entryPerimeter=0;" edge="1" parent="ZsdHm7hUdMNgsrG0PpbW-57" source="ZsdHm7hUdMNgsrG0PpbW-60" target="ZsdHm7hUdMNgsrG0PpbW-62">
          <mxGeometry relative="1" as="geometry" />
        </mxCell>
        <mxCell id="ZsdHm7hUdMNgsrG0PpbW-65" style="rounded=0;orthogonalLoop=1;jettySize=auto;html=1;exitX=0.5;exitY=1;exitDx=0;exitDy=0;entryX=0;entryY=0;entryDx=30;entryDy=0;entryPerimeter=0;" edge="1" parent="ZsdHm7hUdMNgsrG0PpbW-57" source="ZsdHm7hUdMNgsrG0PpbW-60" target="ZsdHm7hUdMNgsrG0PpbW-61">
          <mxGeometry relative="1" as="geometry" />
        </mxCell>
        <mxCell id="ZsdHm7hUdMNgsrG0PpbW-66" style="rounded=0;orthogonalLoop=1;jettySize=auto;html=1;exitX=0.5;exitY=1;exitDx=0;exitDy=0;entryX=0;entryY=0;entryDx=30;entryDy=0;entryPerimeter=0;" edge="1" parent="ZsdHm7hUdMNgsrG0PpbW-57" source="ZsdHm7hUdMNgsrG0PpbW-60" target="ZsdHm7hUdMNgsrG0PpbW-63">
          <mxGeometry relative="1" as="geometry" />
        </mxCell>
        <mxCell id="ZsdHm7hUdMNgsrG0PpbW-68" style="edgeStyle=orthogonalEdgeStyle;rounded=0;orthogonalLoop=1;jettySize=auto;html=1;entryX=0.521;entryY=-0.047;entryDx=0;entryDy=0;entryPerimeter=0;exitX=0.5;exitY=1;exitDx=0;exitDy=0;" edge="1" parent="1" source="ZsdHm7hUdMNgsrG0PpbW-9" target="ZsdHm7hUdMNgsrG0PpbW-49">
          <mxGeometry relative="1" as="geometry">
            <mxPoint x="355.0079999999998" y="380" as="sourcePoint" />
          </mxGeometry>
        </mxCell>
        <mxCell id="ZsdHm7hUdMNgsrG0PpbW-69" style="rounded=0;orthogonalLoop=1;jettySize=auto;html=1;exitX=0.5;exitY=1;exitDx=0;exitDy=0;entryX=0.51;entryY=-0.047;entryDx=0;entryDy=0;entryPerimeter=0;" edge="1" parent="1" source="ZsdHm7hUdMNgsrG0PpbW-9" target="ZsdHm7hUdMNgsrG0PpbW-11">
          <mxGeometry relative="1" as="geometry">
            <mxPoint x="355" y="380" as="sourcePoint" />
          </mxGeometry>
        </mxCell>
        <mxCell id="ZsdHm7hUdMNgsrG0PpbW-70" style="rounded=0;orthogonalLoop=1;jettySize=auto;html=1;exitX=0.5;exitY=1;exitDx=0;exitDy=0;entryX=0.427;entryY=-0.055;entryDx=0;entryDy=0;entryPerimeter=0;" edge="1" parent="1" source="ZsdHm7hUdMNgsrG0PpbW-9" target="ZsdHm7hUdMNgsrG0PpbW-59">
          <mxGeometry relative="1" as="geometry">
            <mxPoint x="355" y="380" as="sourcePoint" />
          </mxGeometry>
        </mxCell>
        <mxCell id="ZsdHm7hUdMNgsrG0PpbW-71" value="&lt;font style=&quot;font-size: 14px;&quot;&gt;查询缓存&lt;/font&gt;" style="text;html=1;strokeColor=none;fillColor=none;align=center;verticalAlign=middle;whiteSpace=wrap;rounded=0;fontColor=#FF3333;" vertex="1" parent="1">
          <mxGeometry x="360" y="210" width="60" height="30" as="geometry" />
        </mxCell>
        <mxCell id="ZsdHm7hUdMNgsrG0PpbW-72" value="&lt;font style=&quot;font-size: 14px;&quot;&gt;查询数据库&lt;/font&gt;" style="text;html=1;strokeColor=none;fillColor=none;align=center;verticalAlign=middle;whiteSpace=wrap;rounded=0;fontColor=#FF3333;" vertex="1" parent="1">
          <mxGeometry x="193.34" y="350" width="76.66" height="30" as="geometry" />
        </mxCell>
      </root>
    </mxGraphModel>
  </diagram>
</mxfile>
